<?xml version="1.0" standalone="no"?>
<!DOCTYPE svg PUBLIC "-//W3C//DTD SVG 20010904//EN"
 "http://www.w3.org/TR/2001/REC-SVG-20010904/DTD/svg10.dtd">
<svg version="1.0" xmlns="http://www.w3.org/2000/svg"
 width="2000.000000pt" height="2588.000000pt" viewBox="0 0 2000.000000 2588.000000"
 preserveAspectRatio="xMidYMid meet">

<g transform="translate(0.000000,2588.000000) scale(0.100000,-0.100000)"
fill="#000000" stroke="none">
<path d="M8623 17662 l-1362 -787 2 -1593 2 -1594 1368 -789 1367 -789 1368
789 1367 790 2 1593 2 1593 -1361 785 c-749 432 -1369 786 -1377 787 -9 1
-629 -352 -1378 -785z m2645 -118 c691 -399 1258 -727 1260 -729 2 -2 -453
-271 -513 -303 -18 -9 -138 57 -875 482 l-855 492 -3 -2517 -2 -2517 -139 -82
-140 -81 -135 78 -136 77 0 2523 c0 1388 -2 2523 -4 2523 -2 0 -388 -221 -858
-492 -469 -270 -857 -491 -863 -491 -10 0 -484 270 -517 295 -16 11 138 103
1240 740 691 400 1263 727 1270 728 7 0 578 -327 1270 -726z m-1668 -1124 l0
-740 -260 0 -260 0 -2 278 -3 278 -175 -102 -175 -102 -3 -236 -2 -236 440 0
440 0 0 -1079 0 -1080 -162 94 c-90 52 -408 235 -708 408 l-545 314 -3 332 -2
331 265 0 265 0 0 -169 0 -169 153 -89 c83 -50 162 -95 175 -102 l22 -12 0
331 0 330 -440 0 -440 0 0 673 1 672 707 408 c389 224 708 407 709 407 2 0 3
-333 3 -740z m1568 300 l652 -375 0 -332 0 -333 -265 0 -265 0 0 173 0 172
-166 95 c-91 52 -169 97 -175 98 -5 2 -9 -123 -9 -327 l0 -331 440 0 440 0 -2
-671 -3 -671 -700 -404 c-385 -222 -703 -404 -707 -404 -5 0 -8 333 -8 740 l0
740 260 0 260 0 2 -280 3 -280 178 102 177 102 0 238 0 238 -440 0 -440 0 0
1076 0 1075 58 -33 c32 -18 352 -202 710 -408z m-3487 -167 l258 -148 3 -1153
3 -1153 833 -481 832 -481 0 -308 c0 -170 -3 -309 -6 -309 -3 0 -498 284
-1100 632 l-1094 632 0 1458 c0 802 3 1458 7 1458 3 0 122 -66 264 -147z
m4909 -1311 l0 -1458 -1072 -619 c-589 -341 -1082 -626 -1095 -633 l-23 -13 0
313 1 313 824 475 825 475 0 1151 0 1150 263 152 c144 83 265 152 270 152 4 0
7 -656 7 -1458z"/>
<path d="M4830 11504 c-43 -18 -86 -59 -108 -99 -20 -39 -20 -131 1 -172 49
-94 191 -139 308 -98 174 62 185 299 17 370 -48 20 -171 19 -218 -1z"/>
<path d="M14660 11509 c-154 -62 -176 -267 -37 -353 33 -20 63 -30 109 -33
156 -13 257 67 258 201 0 125 -84 197 -229 195 -42 0 -87 -5 -101 -10z"/>
<path d="M8850 10650 l0 -750 190 0 190 0 0 750 0 750 -190 0 -190 0 0 -750z"/>
<path d="M3628 11330 c-260 -47 -419 -184 -447 -382 -31 -219 76 -368 319
-447 36 -11 117 -32 180 -46 233 -52 300 -88 300 -159 0 -26 -7 -44 -24 -61
-88 -88 -394 -65 -604 45 l-73 38 -19 -41 c-9 -23 -38 -89 -64 -146 -36 -81
-44 -107 -34 -113 44 -31 167 -81 249 -102 396 -101 761 -23 897 191 70 110
82 276 29 385 -62 127 -170 186 -468 260 -255 62 -299 84 -299 148 0 87 58
122 210 128 124 5 204 -11 328 -65 46 -19 84 -34 86 -32 7 10 116 280 116 288
0 14 -137 68 -232 92 -93 23 -366 35 -450 19z"/>
<path d="M10880 11155 l0 -155 220 0 220 0 0 -550 0 -550 200 0 200 0 0 550 0
550 215 0 215 0 0 155 0 155 -635 0 -635 0 0 -155z"/>
<path d="M6160 10996 c-72 -21 -112 -41 -162 -79 l-48 -37 0 55 0 55 -185 0
-185 0 0 -545 0 -545 189 0 189 0 5 303 c4 329 8 354 60 414 93 106 259 95
317 -22 25 -50 25 -52 28 -372 l3 -323 190 0 189 0 0 324 c0 179 -5 359 -11
402 -25 183 -109 298 -258 355 -70 27 -251 36 -321 15z"/>
<path d="M7538 10994 c-90 -21 -176 -70 -244 -138 -102 -102 -146 -214 -146
-371 0 -160 51 -284 156 -383 113 -105 236 -147 406 -139 123 5 172 21 248 79
l55 41 -6 -66 c-14 -149 -95 -223 -257 -234 -123 -9 -292 34 -378 96 l-28 19
-67 -127 c-37 -71 -67 -133 -67 -138 0 -16 136 -79 217 -102 165 -45 404 -52
552 -16 198 48 328 173 387 371 16 52 18 119 21 582 l4 522 -180 0 -181 0 0
-60 c0 -33 -2 -60 -5 -60 -3 0 -21 16 -41 35 -92 92 -279 130 -446 89z m325
-298 c92 -33 147 -111 147 -210 0 -143 -103 -234 -255 -224 -76 5 -115 21
-159 65 -64 63 -84 168 -47 249 21 46 83 102 132 120 45 17 135 16 182 0z"/>
<path d="M10042 10990 c-113 -30 -202 -82 -277 -161 -106 -113 -148 -222 -148
-384 1 -265 166 -468 443 -542 90 -24 310 -23 399 1 86 23 166 65 221 114 l45
41 -101 101 -100 101 -58 -35 c-69 -41 -149 -60 -227 -53 -63 5 -142 37 -177
70 -21 19 -62 87 -62 102 0 3 180 5 400 5 l400 0 0 83 c0 269 -124 455 -360
542 -104 38 -288 45 -398 15z m285 -275 c54 -27 99 -83 110 -135 l6 -30 -227
0 -227 0 6 23 c13 41 55 106 83 125 70 49 170 56 249 17z"/>
<path d="M15983 10995 c-61 -17 -134 -54 -180 -91 l-33 -27 0 57 0 56 -180 0
-180 0 0 -545 0 -545 189 0 190 0 3 313 c3 310 3 312 28 362 57 115 215 153
304 74 61 -53 66 -84 66 -436 l0 -313 190 0 190 0 0 358 c0 326 -2 366 -20
437 -25 97 -53 147 -119 208 -80 75 -174 107 -311 106 -47 0 -109 -7 -137 -14z"/>
<path d="M4750 10445 l0 -545 190 0 190 0 0 545 0 545 -190 0 -190 0 0 -545z"/>
<path d="M12325 10923 c14 -38 101 -282 194 -543 l169 -475 187 0 188 0 105
293 c58 161 108 289 112 285 4 -4 51 -137 105 -295 l98 -288 187 0 186 0 189
533 c104 292 190 538 193 545 3 10 -31 12 -163 10 l-168 -3 -113 -323 c-61
-178 -114 -325 -117 -328 -3 -3 -33 79 -67 183 -35 103 -85 252 -113 331 l-49
142 -165 -2 -165 -3 -110 -315 c-61 -173 -114 -319 -118 -323 -4 -5 -56 137
-116 315 l-109 323 -182 3 -183 2 25 -67z"/>
<path d="M14570 10445 l0 -545 190 0 190 0 0 545 0 545 -190 0 -190 0 0 -545z"/>
<path d="M6894 9059 c-74 -23 -158 -93 -185 -154 -25 -54 -25 -157 0 -210 44
-96 149 -156 354 -205 70 -16 150 -41 177 -55 130 -66 144 -231 25 -301 -62
-36 -100 -45 -190 -45 -95 0 -177 26 -231 73 -49 43 -58 64 -64 143 l-5 70
-49 3 c-32 2 -52 -1 -57 -10 -5 -7 -9 -87 -9 -178 0 -91 4 -171 9 -178 5 -9
25 -12 57 -10 45 3 49 5 52 31 4 33 10 33 70 3 90 -46 156 -59 266 -54 123 6
200 33 264 91 68 63 87 107 87 202 0 94 -20 140 -84 198 -59 54 -106 74 -271
117 -161 42 -199 58 -243 99 -80 74 -74 167 15 234 51 38 101 50 192 45 85 -5
155 -31 205 -79 36 -34 61 -98 61 -157 l0 -53 53 3 52 3 0 185 0 185 -52 3
c-51 3 -53 2 -53 -22 0 -38 -15 -40 -82 -8 -117 55 -252 67 -364 31z"/>
<path d="M10862 9055 c-37 -31 -47 -76 -27 -120 48 -100 195 -65 195 46 0 87
-100 131 -168 74z"/>
<path d="M8440 9011 l0 -50 103 -3 102 -3 0 -425 0 -425 -102 -3 -103 -3 0
-50 0 -49 273 2 272 3 3 47 3 47 -103 3 -103 3 -5 475 -5 475 -167 3 -168 2 0
-49z"/>
<path d="M10127 9013 c-4 -3 -7 -55 -7 -115 0 -102 -1 -110 -25 -133 -22 -22
-32 -25 -105 -25 l-80 0 0 -50 0 -49 103 -3 102 -3 5 -240 c6 -252 9 -271 56
-333 43 -55 96 -77 194 -77 64 0 94 5 120 19 76 40 129 113 133 184 l2 37 -60
0 -59 0 -7 -35 c-11 -52 -68 -100 -119 -100 -59 0 -98 24 -121 73 -16 37 -19
67 -19 244 0 111 3 208 6 217 5 14 28 16 150 16 l144 0 0 50 0 50 -138 0 c-94
0 -142 4 -150 12 -8 8 -12 54 -12 140 l0 128 -53 0 c-30 0 -57 -3 -60 -7z"/>
<path d="M7885 8747 c-75 -25 -122 -56 -177 -116 -194 -209 -106 -542 166
-634 99 -34 238 -17 326 38 59 37 137 130 161 193 30 80 30 205 -1 285 -31 82
-120 175 -202 212 -74 34 -205 44 -273 22z m221 -121 c164 -76 207 -309 84
-449 -164 -186 -460 -62 -460 193 0 159 114 280 265 280 42 0 75 -7 111 -24z"/>
<path d="M11522 8740 c-271 -99 -348 -450 -141 -651 27 -26 75 -60 106 -76 53
-25 68 -28 163 -28 93 0 111 3 163 27 75 35 156 113 193 185 27 54 29 66 29
173 0 112 -1 117 -34 177 -42 77 -114 146 -189 181 -77 35 -211 41 -290 12z
m246 -116 c56 -28 90 -63 125 -128 17 -33 22 -58 22 -126 0 -73 -4 -92 -27
-136 -48 -92 -136 -146 -236 -145 -234 1 -351 293 -192 475 77 87 204 112 308
60z"/>
<path d="M12580 8751 c-43 -14 -84 -38 -109 -65 -34 -36 -49 -33 -53 12 l-3
37 -132 3 -133 3 0 -51 0 -50 63 0 c36 0 68 -5 75 -12 17 -17 17 -499 0 -516
-7 -7 -39 -12 -75 -12 l-63 0 0 -50 0 -50 208 2 207 3 3 47 3 47 -73 3 -73 3
0 181 0 181 30 58 c41 80 94 117 175 123 35 3 72 -1 90 -8 41 -17 87 -71 99
-117 6 -22 11 -142 11 -280 l0 -243 135 0 135 0 0 50 0 50 -63 0 c-36 0 -68 5
-75 12 -9 9 -12 69 -12 208 0 221 -9 271 -63 342 -47 62 -114 93 -207 95 -41
1 -86 -1 -100 -6z"/>
<path d="M13386 8746 c-96 -36 -146 -106 -146 -204 0 -59 2 -65 40 -106 50
-54 108 -80 251 -111 133 -30 175 -48 195 -87 41 -79 -34 -150 -158 -149 -107
0 -205 67 -231 159 l-14 47 -57 3 -57 3 3 -148 3 -148 55 0 c53 0 55 1 58 28
2 16 6 27 10 25 4 -2 38 -19 77 -38 202 -101 444 -5 445 177 0 57 -14 91 -57
135 -45 46 -106 71 -252 103 -63 14 -128 33 -145 43 -61 36 -60 107 3 149 41
28 138 32 194 8 50 -21 104 -71 128 -117 19 -38 21 -39 67 -36 l47 3 3 128 3
127 -54 0 c-53 0 -55 -1 -61 -31 l-6 -31 -32 22 c-63 41 -102 53 -188 57 -57
2 -98 -1 -124 -11z"/>
<path d="M8960 8690 l0 -49 73 -3 72 -3 5 -225 5 -225 30 -60 c51 -101 127
-145 255 -145 74 0 148 29 189 74 34 36 49 33 53 -11 l3 -38 133 -3 132 -3 0
51 0 50 -63 0 c-36 0 -68 5 -75 12 -9 9 -12 94 -12 320 l0 308 -136 0 -135 0
3 -47 3 -48 70 -5 70 -5 0 -180 c0 -177 0 -181 -28 -238 -33 -67 -79 -105
-146 -123 -99 -25 -192 22 -219 113 -8 27 -12 123 -12 287 l0 246 -135 0 -135
0 0 -50z"/>
<path d="M10674 8726 c-3 -8 -4 -29 -2 -48 l3 -33 105 -5 105 -5 3 -254 c2
-175 -1 -258 -9 -267 -7 -9 -42 -14 -107 -16 l-97 -3 0 -45 0 -45 273 -3 272
-2 0 50 0 50 -93 0 c-59 0 -97 4 -105 12 -9 9 -12 94 -12 320 l0 308 -165 0
c-133 0 -167 -3 -171 -14z"/>
</g>
</svg>
